# xmcd
#
# Track frame offsets: 
#        150
#        16476
#        31870
#        47044
#        61464
#        75409
#        90985
#        104718
#        118853
#        135033
#        157105
#        179099
#        199606
#        225142
#        245802
#        269494
#        290906
#        314102
#
# Disc length: 4515 seconds
#
# Revision: 0
# Processed by: cddbd v1.5.2PL0 Copyright (c) Steve Scherf et al.
# Submitted via: ExactAudioCopy v1.1
#
DISCID=0111a112
DTITLE=The Rolling Stones - Honk - CD 2
DYEAR=2019
DGENRE=Rock
TTITLE0=Bitch
TTITLE1=Harlem Shuffle
TTITLE2=Hate To See You Go
TTITLE3=Rough Justice
TTITLE4=Happy
TTITLE5=Doo Doo Doo Doo Doo (Heartbreaker)
TTITLE6=One More Shot
TTITLE7=Respectable
TTITLE8=You Got Me Rocking
TTITLE9=Rain Fall Down
TTITLE10=Dancing With Mr D
TTITLE11=Undercover (Of The Night)
TTITLE12=Emotional Rescue
TTITLE13=Waiting On A Friend
TTITLE14=Saint Of Me
TTITLE15=Out Of Control
TTITLE16=Streets Of Love
TTITLE17=Out Of Tears
EXTD=
EXTT0=
EXTT1=
EXTT2=
EXTT3=
EXTT4=
EXTT5=
EXTT6=
EXTT7=
EXTT8=
EXTT9=
EXTT10=
EXTT11=
EXTT12=
EXTT13=
EXTT14=
EXTT15=
EXTT16=
EXTT17=
PLAYORDER=
